# xmcd
#
# Track frame offsets:
#	150
#	24315
#	41149
#	63622
#	83071
#	103657
#	128748
#	146785
#	166944
#	186560
#
# Disc length: 2769 seconds
#
# Revision: 0
# Processed by: cddbd v1.5.1PL2 Copyright (c) Steve Scherf et al.
# Submitted via: dBpowerAMP V4.0
#
DISCID=8c0acf0a
DTITLE=Leonard and Sample - Bend
DYEAR=2004
DGENRE=Blues/Jazz
TTITLE0=Nickle
TTITLE1=Without You
TTITLE2=Alive
TTITLE3=I Believe
TTITLE4=I'm Not Gonna Let you go 
TTITLE5=Dig Dwon Deep
TTITLE6=I'm not gonna worry
TTITLE7=No More
TTITLE8=Bend this Circle
TTITLE9=Gods Theme
EXTD=
EXTT0=
EXTT1=
EXTT2=
EXTT3=
EXTT4=
EXTT5=
EXTT6=
EXTT7=
EXTT8=
EXTT9=
PLAYORDER=
